HIERARCHY
ROOT hip
{
	OFFSET	0.00  0.00  0.00 
	CHANNELS 6 Xposition Yposition Zposition Xrotation Zrotation Yrotation
	JOINT abdomen
	{
		OFFSET	0.000000 0.000000 0.000000
		CHANNELS 3 Xrotation Zrotation Yrotation
		JOINT chest
		{
			OFFSET	0.000000 5.018152 -1.882228
			CHANNELS 3 Xrotation Zrotation Yrotation
			JOINT neckDummy
			{
				OFFSET	0.000000 8.316447 0.784897
				CHANNELS 3 Xrotation Yrotation Zrotation
				JOINT neck
				{
					OFFSET	0.000000 2.280413 -0.392801
					CHANNELS 3 Xrotation Zrotation Yrotation
					JOINT head
					{
						OFFSET	0.000000 3.496879 0.529469
						CHANNELS 3 Xrotation Zrotation Yrotation
						JOINT figureHair
						{
							OFFSET	0.000000 4.699570 0.720622
							CHANNELS 3 Zrotation Yrotation Xrotation
							End Site
							{
								OFFSET 0.000000 -6.419331 0.000000
							}
						}
					}
				}
			}
			JOINT lCollar
			{
				OFFSET	0.599237 8.316447 0.784897
				CHANNELS 3 Yrotation Zrotation Xrotation
				JOINT lShldr
				{
					OFFSET	6.421198 0.010146 -0.332128
					CHANNELS 3 Zrotation Yrotation Xrotation
					JOINT lForeArm
					{
						OFFSET	10.552783 0.025574 0.125508
						CHANNELS 3 Yrotation Zrotation Xrotation
						JOINT lHand
						{
							OFFSET	11.035963 0.319619 0.041520
							CHANNELS 3 Zrotation Yrotation Xrotation
							End Site
							{
								OFFSET 10.353753 0.000000 0.000000
							}
						}
					}
				}
			}
			JOINT rCollar
			{
				OFFSET	-0.599237 8.316447 0.784897
				CHANNELS 3 Yrotation Zrotation Xrotation
				JOINT rShldr
				{
					OFFSET	-6.421198 0.010146 -0.332128
					CHANNELS 3 Zrotation Yrotation Xrotation
					JOINT rForeArm
					{
						OFFSET	-10.552783 0.025574 0.125508
						CHANNELS 3 Yrotation Zrotation Xrotation
						JOINT rHand
						{
							OFFSET	-11.035963 0.319619 0.041520
							CHANNELS 3 Zrotation Yrotation Xrotation
							End Site
							{
								OFFSET -10.353753 0.000000 0.000000
							}
						}
					}
				}
			}
		}
	}
	JOINT lThigh
	{
		OFFSET	4.500466 -6.400484 -1.832696
		CHANNELS 3 Xrotation Zrotation Yrotation
		JOINT lShin
		{
			OFFSET	-1.359117 -18.918689 1.179887
			CHANNELS 3 Xrotation Zrotation Yrotation
			JOINT lFoot
			{
				OFFSET	-0.652380 -17.215186 -0.312137
				CHANNELS 3 Xrotation Yrotation Zrotation
				End Site
				{
					OFFSET 0.000000 0.000000 10.353752
				}
			}
		}
	}
	JOINT rThigh
	{
		OFFSET	-4.500466 -6.400484 -1.832696
		CHANNELS 3 Xrotation Zrotation Yrotation
		JOINT rShin
		{
			OFFSET	1.359117 -18.918689 1.179887
			CHANNELS 3 Xrotation Zrotation Yrotation
			JOINT rFoot
			{
				OFFSET	0.652380 -17.215186 -0.312137
				CHANNELS 3 Xrotation Yrotation Zrotation
				End Site
				{
					OFFSET 0.000000 0.000000 10.353752
				}
			}
		}
	}
}
MOTION
Frames:     13
Frame Time: 0.066667
1.046535 41.220963 0.324724 0.000000 0.000000 0.000000 0.000085 -0.014487 -0.021758 -0.051436 -0.036110 -0.021826 0.000000 0.000000 0.000000 5.291228 9.480770 0.000000 -12.276659 -13.228915 -11.450777 0.000000 0.000000 0.000000 2.021920 -5.690310 -0.063351 -43.100700 -20.548477 25.991600 -74.515602 -67.303741 12.147715 5.969490 -0.173112 0.175734 -2.136766 5.418038 -0.085598 68.500702 6.821205 16.191601 36.315601 17.503708 3.547707 -5.969490 0.173112 0.175734 -12.213644 2.381487 0.273047 25.924534 -3.636819 -1.897641 -14.013660 1.496997 1.375130 -12.201114 -10.658843 -15.092795 24.409067 -6.109736 0.166380 -19.078245 -18.493929 12.199211 
1.037139 41.373299 0.323984 0.000000 0.000000 0.000000 0.000088 -0.015044 -0.022594 -0.053414 -0.037498 -0.022665 0.000000 0.000000 0.000000 5.513462 9.274942 0.000000 -8.138225 -13.259158 -10.097313 0.000000 0.000000 0.000000 2.021920 -5.690310 -0.063351 -43.100700 -20.530294 25.991600 -74.515602 -67.303741 12.147714 5.969490 -0.173112 0.175734 -2.141184 5.407567 -0.086453 66.900703 23.621210 16.391602 50.115601 25.703716 6.947714 -5.969490 0.173112 0.175734 -11.326480 2.343205 0.238834 24.049240 -3.575982 -1.721007 -13.033051 1.478785 1.282043 -11.269673 -10.617801 -15.181087 22.557878 -5.588397 0.281530 -26.276711 -16.323980 -0.717581 
1.027744 41.525631 0.323243 0.000000 0.000000 0.000000 0.000092 -0.015601 -0.023431 -0.055392 -0.038887 -0.023505 0.000000 0.000000 0.000000 5.670711 8.631644 0.000000 -3.302985 -13.289401 -8.763490 0.000000 0.000000 0.000000 2.021920 -5.690310 -0.063351 -43.100700 -20.512112 25.991600 -74.515602 -67.303741 12.147713 5.969490 -0.173112 0.175734 -2.145601 5.397095 -0.087309 65.300705 40.421215 16.591600 63.915600 33.903725 10.347721 -5.969490 0.173112 0.175734 -10.350065 2.290895 0.209549 21.997997 -3.491557 -1.520991 -11.965167 1.444488 1.166939 -10.326056 -10.556533 -15.280420 20.670795 -5.099732 0.363460 -33.647438 -14.334614 -13.172052 
1.018349 41.677967 0.322502 0.000000 0.000000 0.000000 0.000095 -0.016158 -0.024268 -0.057370 -0.040276 -0.024344 0.000000 0.000000 0.000000 5.766982 7.800000 0.000000 1.760822 -13.319644 -7.518233 0.000000 0.000000 0.000000 2.021920 -5.690310 -0.063351 -43.100700 -20.493929 25.991600 -74.515602 -67.303741 12.147713 5.969490 -0.173112 0.175734 -2.150018 5.386622 -0.088165 63.700703 57.221222 16.791599 77.715599 42.103733 13.747728 -5.969490 0.173112 0.175734 -9.359665 2.248512 0.168544 19.882885 -3.419095 -1.322716 -10.855622 1.422086 1.082246 -9.214579 -10.504470 -15.393250 18.489260 -4.498172 0.465170 -20.320000 -17.108955 -0.224844 
0.922883 41.637833 0.315737 0.000000 0.000000 0.000000 0.000098 -0.016716 -0.025105 -0.059349 -0.041665 -0.025184 0.000000 0.000000 0.000000 5.806286 6.987252 0.000000 5.820431 -13.349887 -6.430463 0.000000 0.000000 0.000000 2.021920 -5.690310 -0.063351 -43.100700 -20.475746 25.991600 -74.515602 -67.303741 12.147713 5.969490 -0.173112 0.175734 -2.154435 5.376150 -0.089020 62.100700 74.021225 16.991600 91.515602 50.303741 17.147736 -5.969490 0.173112 0.175734 -9.658457 2.420353 0.180244 20.494831 -3.432117 -1.366877 -11.145135 1.390634 0.936395 -9.602106 -10.352062 -15.294903 19.256023 -4.700593 0.433780 -9.017947 -20.786036 12.338171 
0.827417 41.597698 0.308971 0.000000 0.000000 0.000000 0.000101 -0.017273 -0.025942 -0.061327 -0.043054 -0.026023 0.000000 0.000000 0.000000 5.792632 6.233090 0.000000 8.826564 -13.373242 -5.547881 0.000000 0.000000 0.000000 2.021920 -5.690310 -0.063351 -43.100700 -20.457563 25.991600 -74.515602 -67.303741 12.147712 5.969490 -0.173112 0.175734 -2.158852 5.365678 -0.089876 61.902458 74.079628 16.808907 91.801254 49.971619 23.686937 -5.969490 0.173112 0.175734 -9.946632 2.590940 0.190938 21.094450 -3.454093 -1.432089 -11.460960 1.382797 0.802682 -9.998831 -10.201509 -15.218768 19.972689 -4.903048 0.398934 -17.174688 -18.394478 11.155396 
0.731951 41.557564 0.302205 0.000000 0.000000 0.000000 0.000105 -0.017830 -0.026779 -0.063305 -0.044442 -0.026863 0.000000 0.000000 0.000000 5.730027 5.535318 0.000000 11.832697 -13.396599 -4.833307 0.000000 0.000000 0.000000 2.021920 -5.690310 -0.063351 -43.100700 -20.439381 25.991600 -74.515602 -67.303741 12.147711 5.969490 -0.173112 0.175734 -2.163269 5.355206 -0.090732 61.704216 74.138031 16.626213 92.086899 49.639496 30.226139 -5.969490 0.173112 0.175734 -10.261846 2.770455 0.201744 21.732838 -3.479503 -1.500347 -11.777220 1.369575 0.678134 -10.381987 -10.052007 -15.131908 20.730597 -5.100482 0.372796 -25.638063 -16.311447 -1.527618 
0.636485 41.517429 0.295439 0.000000 0.000000 0.000000 0.000108 -0.018387 -0.027615 -0.065284 -0.045831 -0.027702 0.000000 0.000000 0.000000 5.622480 4.891740 0.000000 14.838829 -13.419954 -4.228344 0.000000 0.000000 0.000000 2.021920 -5.690310 -0.063351 -43.100700 -20.421200 25.991600 -74.515602 -67.303741 12.147711 5.969490 -0.173112 0.175734 -2.167686 5.344734 -0.091587 61.505974 74.196434 16.443520 92.372551 49.307373 36.765343 -5.969490 0.173112 0.175734 -10.587351 2.949694 0.201817 22.409464 -3.514299 -1.563675 -12.112574 1.359522 0.554322 -10.719537 -9.895152 -15.049507 21.382135 -5.280425 0.347085 -34.274052 -14.438839 -13.817409 
0.541019 41.477295 0.288673 0.000000 0.000000 0.000000 0.000111 -0.018944 -0.028452 -0.067262 -0.047220 -0.028542 0.000000 0.000000 0.000000 5.473999 4.300161 0.000000 16.619415 -13.443310 -3.683939 0.000000 0.000000 0.000000 2.021920 -5.690310 -0.063351 -43.100700 -20.403019 25.991600 -74.515602 -67.303741 12.147711 5.969490 -0.173112 0.175734 -2.172103 5.334262 -0.092443 61.307732 74.254837 16.260826 92.658203 48.975250 43.304543 -5.969490 0.173112 0.175734 -10.872154 3.127338 0.199513 22.978691 -3.538836 -1.618597 -12.400118 1.335460 0.428108 -11.051251 -9.731625 -14.977415 22.001383 -5.471673 0.308439 -22.336470 -17.548634 -0.570229 
0.445552 41.437160 0.281907 0.000000 0.000000 0.000000 0.000114 -0.019502 -0.029289 -0.069240 -0.048609 -0.029381 0.000000 0.000000 0.000000 5.288592 3.758385 0.000000 18.400000 -13.466666 -3.188440 0.000000 0.000000 0.000000 2.021920 -5.690310 -0.063351 -43.100700 -20.384836 25.991600 -74.515602 -67.303741 12.147710 5.969490 -0.173112 0.175734 -2.176520 5.323790 -0.093298 61.109486 74.313240 16.078131 92.943848 48.643127 49.843746 -5.969490 0.173112 0.175734 -11.138904 3.294857 0.195995 23.520903 -3.543846 -1.667488 -12.676646 1.320726 0.283408 -11.381637 -9.588432 -14.905389 22.649853 -5.625379 0.273195 -10.973725 -21.260788 12.057705 
0.461979 41.453106 0.282974 0.000000 0.000000 0.000000 -0.012121 -0.027207 -0.037712 -0.085121 -0.065329 -0.055417 0.000000 0.000000 0.000000 5.070272 3.264215 0.000000 19.049324 -13.117000 -2.739541 0.000000 0.000000 0.000000 2.021920 -5.690310 -0.063351 -43.100700 -20.366653 25.991600 -74.515602 -67.303741 12.147709 5.969490 -0.173112 0.175734 -2.238678 5.120881 -0.091999 60.911007 74.408707 15.896688 93.152824 48.363216 49.670002 -5.969490 0.173112 0.175734 -11.045839 3.262979 0.202535 23.343372 -3.542179 -1.654651 -12.587602 1.327173 0.302412 -11.278542 -9.606674 -14.878500 22.432703 -5.565836 0.276485 -18.624933 -18.781084 10.858490 
0.478405 41.469051 0.284041 0.000000 0.000000 0.000000 -0.024355 -0.034913 -0.046134 -0.101002 -0.082048 -0.081453 0.000000 0.000000 0.000000 4.823044 2.815457 0.000000 19.698648 -12.767333 -2.334941 0.000000 0.000000 0.000000 2.021920 -5.690310 -0.063351 -43.100700 -20.348473 25.991600 -74.515602 -67.303741 12.147709 5.969490 -0.173112 0.175734 -2.300836 4.917972 -0.090699 60.712528 74.504173 15.715244 93.361801 48.083305 49.496258 -5.969490 0.173112 0.175734 -10.934851 3.225967 0.199286 23.108458 -3.527215 -1.635214 -12.469303 1.331408 0.321043 -11.164160 -9.622453 -14.849955 22.215225 -5.505989 0.290278 -26.526770 -16.573683 -1.802837 
0.494831 41.484997 0.285108 0.000000 0.000000 0.000000 -0.036590 -0.042618 -0.054557 -0.116884 -0.098768 -0.107488 0.000000 0.000000 0.000000 4.550920 2.409914 0.000000 20.347973 -12.417666 -1.972331 0.000000 0.000000 0.000000 2.021920 -5.690310 -0.063351 -43.100700 -20.330292 25.991600 -74.515602 -67.303741 12.147709 5.969490 -0.173112 0.175734 -2.362994 4.715063 -0.089399 60.514050 74.599640 15.533801 93.570778 47.803391 49.322514 -5.969490 0.173112 0.175734 -10.832194 3.195166 0.195499 22.891712 -3.525460 -1.609916 -12.352515 1.321169 0.347851 -11.053706 -9.644836 -14.843225 21.987049 -5.447181 0.312472 -34.661224 -14.608074 -14.042882 
